<mxfile host="Electron" modified="2025-03-27T15:20:45.395Z" agent="Mozilla/5.0 (Windows NT 10.0; Win64; x64) AppleWebKit/537.36 (KHTML, like Gecko) draw.io/22.0.2 Chrome/114.0.5735.289 Electron/25.8.4 Safari/537.36" etag="FP7yCJnMAQH5C3OARXah" version="22.0.2" type="device">
  <diagram name="Страница — 1" id="QheiP6FYDaWY30L5TJRV">
    <mxGraphModel dx="1418" dy="828" grid="1" gridSize="10" guides="1" tooltips="1" connect="1" arrows="1" fold="1" page="1" pageScale="1" pageWidth="827" pageHeight="1169" background="#ffffff" math="0" shadow="0">
      <root>
        <mxCell id="0" />
        <mxCell id="1" parent="0" />
        <mxCell id="4-v8WGSnHiIDi6gtvXBV-103" value="" style="endArrow=none;dashed=1;html=1;rounded=0;" parent="1" edge="1">
          <mxGeometry width="50" height="50" relative="1" as="geometry">
            <mxPoint x="135" y="1300" as="sourcePoint" />
            <mxPoint x="134.5" y="1130" as="targetPoint" />
          </mxGeometry>
        </mxCell>
        <mxCell id="4-v8WGSnHiIDi6gtvXBV-1" value="" style="endArrow=none;dashed=1;html=1;rounded=0;" parent="1" source="4-v8WGSnHiIDi6gtvXBV-2" edge="1" target="4-v8WGSnHiIDi6gtvXBV-6">
          <mxGeometry width="50" height="50" relative="1" as="geometry">
            <mxPoint x="135" y="600" as="sourcePoint" />
            <mxPoint x="135" y="130" as="targetPoint" />
          </mxGeometry>
        </mxCell>
        <mxCell id="4-v8WGSnHiIDi6gtvXBV-2" value="" style="html=1;points=[[0,0,0,0,5],[0,1,0,0,-5],[1,0,0,0,5],[1,1,0,0,-5]];perimeter=orthogonalPerimeter;outlineConnect=0;targetShapes=umlLifeline;portConstraint=eastwest;newEdgeStyle={&quot;curved&quot;:0,&quot;rounded&quot;:0};" parent="1" vertex="1">
          <mxGeometry x="125" y="160" width="20" height="1090" as="geometry" />
        </mxCell>
        <mxCell id="4-v8WGSnHiIDi6gtvXBV-3" value="" style="endArrow=none;dashed=1;html=1;rounded=0;" parent="1" source="4-v8WGSnHiIDi6gtvXBV-33" edge="1">
          <mxGeometry width="50" height="50" relative="1" as="geometry">
            <mxPoint x="560" y="600" as="sourcePoint" />
            <mxPoint x="560" y="130" as="targetPoint" />
          </mxGeometry>
        </mxCell>
        <mxCell id="4-v8WGSnHiIDi6gtvXBV-4" value="" style="endArrow=none;dashed=1;html=1;rounded=0;" parent="1" source="4-v8WGSnHiIDi6gtvXBV-63" target="4-v8WGSnHiIDi6gtvXBV-5" edge="1">
          <mxGeometry width="50" height="50" relative="1" as="geometry">
            <mxPoint x="560" y="1210" as="sourcePoint" />
            <mxPoint x="560" y="130" as="targetPoint" />
          </mxGeometry>
        </mxCell>
        <mxCell id="4-v8WGSnHiIDi6gtvXBV-5" value="" style="html=1;points=[[0,0,0,0,5],[0,1,0,0,-5],[1,0,0,0,5],[1,1,0,0,-5]];perimeter=orthogonalPerimeter;outlineConnect=0;targetShapes=umlLifeline;portConstraint=eastwest;newEdgeStyle={&quot;curved&quot;:0,&quot;rounded&quot;:0};" parent="1" vertex="1">
          <mxGeometry x="550" y="430" width="20" height="90" as="geometry" />
        </mxCell>
        <mxCell id="4-v8WGSnHiIDi6gtvXBV-6" value="Администратор" style="shape=umlActor;verticalLabelPosition=bottom;verticalAlign=top;html=1;outlineConnect=0;" parent="1" vertex="1">
          <mxGeometry x="120" y="30" width="30" height="60" as="geometry" />
        </mxCell>
        <mxCell id="4-v8WGSnHiIDi6gtvXBV-7" value="" style="endArrow=none;dashed=1;html=1;rounded=0;" parent="1" edge="1">
          <mxGeometry width="50" height="50" relative="1" as="geometry">
            <mxPoint x="350" y="160.0000000000001" as="sourcePoint" />
            <mxPoint x="350" y="130" as="targetPoint" />
          </mxGeometry>
        </mxCell>
        <mxCell id="4-v8WGSnHiIDi6gtvXBV-8" value="" style="endArrow=none;dashed=1;html=1;rounded=0;" parent="1" source="4-v8WGSnHiIDi6gtvXBV-25" edge="1">
          <mxGeometry width="50" height="50" relative="1" as="geometry">
            <mxPoint x="350" y="640" as="sourcePoint" />
            <mxPoint x="350" y="160" as="targetPoint" />
          </mxGeometry>
        </mxCell>
        <mxCell id="4-v8WGSnHiIDi6gtvXBV-9" value=": Устройство" style="rounded=0;whiteSpace=wrap;html=1;" parent="1" vertex="1">
          <mxGeometry x="290" y="70" width="120" height="60" as="geometry" />
        </mxCell>
        <mxCell id="4-v8WGSnHiIDi6gtvXBV-10" value=": Сервер" style="rounded=0;whiteSpace=wrap;html=1;" parent="1" vertex="1">
          <mxGeometry x="500" y="70" width="120" height="60" as="geometry" />
        </mxCell>
        <mxCell id="4-v8WGSnHiIDi6gtvXBV-11" value="" style="endArrow=classic;html=1;rounded=0;entryX=0;entryY=0.095;entryDx=0;entryDy=0;entryPerimeter=0;" parent="1" source="4-v8WGSnHiIDi6gtvXBV-2" edge="1">
          <mxGeometry width="50" height="50" relative="1" as="geometry">
            <mxPoint x="250" y="330" as="sourcePoint" />
            <mxPoint x="340" y="199.9000000000002" as="targetPoint" />
          </mxGeometry>
        </mxCell>
        <mxCell id="4-v8WGSnHiIDi6gtvXBV-12" value="Открыть сайт" style="edgeLabel;html=1;align=center;verticalAlign=middle;resizable=0;points=[];" parent="4-v8WGSnHiIDi6gtvXBV-11" vertex="1" connectable="0">
          <mxGeometry x="-0.019" y="1" relative="1" as="geometry">
            <mxPoint y="-9" as="offset" />
          </mxGeometry>
        </mxCell>
        <mxCell id="4-v8WGSnHiIDi6gtvXBV-13" value="Отобразить приветственную&lt;br&gt;&amp;nbsp;страницу сайта" style="html=1;verticalAlign=bottom;endArrow=classic;dashed=1;endSize=8;curved=0;rounded=0;exitX=0;exitY=1;exitDx=0;exitDy=-5;exitPerimeter=0;endFill=1;" parent="1" source="4-v8WGSnHiIDi6gtvXBV-25" target="4-v8WGSnHiIDi6gtvXBV-2" edge="1">
          <mxGeometry relative="1" as="geometry">
            <mxPoint x="330" y="240" as="sourcePoint" />
            <mxPoint x="240" y="240" as="targetPoint" />
          </mxGeometry>
        </mxCell>
        <mxCell id="4-v8WGSnHiIDi6gtvXBV-14" value="" style="endArrow=classic;html=1;rounded=0;" parent="1" edge="1">
          <mxGeometry width="50" height="50" relative="1" as="geometry">
            <mxPoint x="150" y="280" as="sourcePoint" />
            <mxPoint x="340" y="280.0000000000001" as="targetPoint" />
          </mxGeometry>
        </mxCell>
        <mxCell id="4-v8WGSnHiIDi6gtvXBV-15" value="Открыть страницу сделок" style="edgeLabel;html=1;align=center;verticalAlign=middle;resizable=0;points=[];" parent="4-v8WGSnHiIDi6gtvXBV-14" vertex="1" connectable="0">
          <mxGeometry x="-0.1729" y="-2" relative="1" as="geometry">
            <mxPoint x="14" y="-12" as="offset" />
          </mxGeometry>
        </mxCell>
        <mxCell id="4-v8WGSnHiIDi6gtvXBV-16" value="Отобразить&amp;nbsp;страницу сделок&amp;nbsp;" style="html=1;verticalAlign=bottom;endArrow=classic;dashed=1;endSize=8;curved=0;rounded=0;endFill=1;" parent="1" edge="1">
          <mxGeometry relative="1" as="geometry">
            <mxPoint x="340" y="350" as="sourcePoint" />
            <mxPoint x="150" y="350" as="targetPoint" />
          </mxGeometry>
        </mxCell>
        <mxCell id="4-v8WGSnHiIDi6gtvXBV-17" value="" style="endArrow=classic;html=1;rounded=0;" parent="1" edge="1">
          <mxGeometry width="50" height="50" relative="1" as="geometry">
            <mxPoint x="150" y="410" as="sourcePoint" />
            <mxPoint x="340" y="410" as="targetPoint" />
          </mxGeometry>
        </mxCell>
        <mxCell id="4-v8WGSnHiIDi6gtvXBV-18" value="Добавить новую сделку" style="edgeLabel;html=1;align=center;verticalAlign=middle;resizable=0;points=[];" parent="4-v8WGSnHiIDi6gtvXBV-17" vertex="1" connectable="0">
          <mxGeometry x="-0.1729" y="-2" relative="1" as="geometry">
            <mxPoint x="14" y="-12" as="offset" />
          </mxGeometry>
        </mxCell>
        <mxCell id="4-v8WGSnHiIDi6gtvXBV-19" value="" style="endArrow=classic;html=1;rounded=0;" parent="1" target="4-v8WGSnHiIDi6gtvXBV-5" edge="1">
          <mxGeometry width="50" height="50" relative="1" as="geometry">
            <mxPoint x="360" y="440" as="sourcePoint" />
            <mxPoint x="550" y="440" as="targetPoint" />
          </mxGeometry>
        </mxCell>
        <mxCell id="4-v8WGSnHiIDi6gtvXBV-20" value="Передать данные" style="edgeLabel;html=1;align=center;verticalAlign=middle;resizable=0;points=[];" parent="4-v8WGSnHiIDi6gtvXBV-19" vertex="1" connectable="0">
          <mxGeometry x="-0.1729" y="-2" relative="1" as="geometry">
            <mxPoint x="14" y="-12" as="offset" />
          </mxGeometry>
        </mxCell>
        <mxCell id="4-v8WGSnHiIDi6gtvXBV-21" value="" style="html=1;points=[];perimeter=orthogonalPerimeter;rounded=0;shadow=0;comic=0;labelBackgroundColor=none;strokeWidth=1;fontFamily=Verdana;fontSize=12;align=center;" parent="1" vertex="1">
          <mxGeometry x="560" y="470" width="20" height="39" as="geometry" />
        </mxCell>
        <mxCell id="4-v8WGSnHiIDi6gtvXBV-22" value="&lt;span style=&quot;font-size: 11px;&quot;&gt;Обновить данные&lt;/span&gt;" style="html=1;verticalAlign=bottom;endArrow=block;labelBackgroundColor=none;fontFamily=Verdana;fontSize=12;elbow=vertical;edgeStyle=orthogonalEdgeStyle;curved=1;entryX=1;entryY=0.286;entryPerimeter=0;" parent="1" edge="1">
          <mxGeometry x="-0.189" y="20" relative="1" as="geometry">
            <mxPoint x="580" y="1115.8300000000002" as="sourcePoint" />
            <mxPoint x="590.3333333333335" y="1154.1633333333334" as="targetPoint" />
            <Array as="points">
              <mxPoint x="640" y="1115.83" />
              <mxPoint x="640" y="1153.83" />
            </Array>
            <mxPoint as="offset" />
          </mxGeometry>
        </mxCell>
        <mxCell id="4-v8WGSnHiIDi6gtvXBV-23" value="Вернуть результат&lt;br&gt;проверки данных" style="html=1;verticalAlign=bottom;endArrow=classic;dashed=1;endSize=8;curved=0;rounded=0;endFill=1;" parent="1" source="4-v8WGSnHiIDi6gtvXBV-5" edge="1">
          <mxGeometry relative="1" as="geometry">
            <mxPoint x="490" y="510" as="sourcePoint" />
            <mxPoint x="370" y="510" as="targetPoint" />
          </mxGeometry>
        </mxCell>
        <mxCell id="4-v8WGSnHiIDi6gtvXBV-24" value="" style="endArrow=none;dashed=1;html=1;rounded=0;" parent="1" source="4-v8WGSnHiIDi6gtvXBV-27" target="4-v8WGSnHiIDi6gtvXBV-25" edge="1">
          <mxGeometry width="50" height="50" relative="1" as="geometry">
            <mxPoint x="350" y="640" as="sourcePoint" />
            <mxPoint x="350" y="160" as="targetPoint" />
          </mxGeometry>
        </mxCell>
        <mxCell id="4-v8WGSnHiIDi6gtvXBV-25" value="" style="html=1;points=[[0,0,0,0,5],[0,1,0,0,-5],[1,0,0,0,5],[1,1,0,0,-5]];perimeter=orthogonalPerimeter;outlineConnect=0;targetShapes=umlLifeline;portConstraint=eastwest;newEdgeStyle={&quot;curved&quot;:0,&quot;rounded&quot;:0};" parent="1" vertex="1">
          <mxGeometry x="340" y="170" width="20" height="80" as="geometry" />
        </mxCell>
        <mxCell id="4-v8WGSnHiIDi6gtvXBV-26" value="" style="endArrow=none;dashed=1;html=1;rounded=0;" parent="1" source="4-v8WGSnHiIDi6gtvXBV-40" target="4-v8WGSnHiIDi6gtvXBV-27" edge="1">
          <mxGeometry width="50" height="50" relative="1" as="geometry">
            <mxPoint x="350" y="1413.157894736842" as="sourcePoint" />
            <mxPoint x="350" y="250" as="targetPoint" />
          </mxGeometry>
        </mxCell>
        <mxCell id="4-v8WGSnHiIDi6gtvXBV-27" value="" style="html=1;points=[[0,0,0,0,5],[0,1,0,0,-5],[1,0,0,0,5],[1,1,0,0,-5]];perimeter=orthogonalPerimeter;outlineConnect=0;targetShapes=umlLifeline;portConstraint=eastwest;newEdgeStyle={&quot;curved&quot;:0,&quot;rounded&quot;:0};" parent="1" vertex="1">
          <mxGeometry x="340" y="400" width="20" height="220" as="geometry" />
        </mxCell>
        <mxCell id="4-v8WGSnHiIDi6gtvXBV-28" value="" style="html=1;points=[];perimeter=orthogonalPerimeter;rounded=0;shadow=0;comic=0;labelBackgroundColor=none;strokeWidth=1;fontFamily=Verdana;fontSize=12;align=center;" parent="1" vertex="1">
          <mxGeometry x="350" y="565" width="20" height="39" as="geometry" />
        </mxCell>
        <mxCell id="4-v8WGSnHiIDi6gtvXBV-29" value="&lt;font style=&quot;font-size: 11px;&quot;&gt;Открыть&amp;nbsp;&lt;span style=&quot;font-family: Helvetica; background-color: rgb(255, 255, 255);&quot;&gt;страницу&lt;br&gt;сделки&lt;br&gt;&lt;/span&gt;&lt;/font&gt;" style="html=1;verticalAlign=bottom;endArrow=block;labelBackgroundColor=none;fontFamily=Verdana;fontSize=12;elbow=vertical;edgeStyle=orthogonalEdgeStyle;curved=1;entryX=1.2;entryY=0.769;entryPerimeter=0;entryDx=0;entryDy=0;" parent="1" source="4-v8WGSnHiIDi6gtvXBV-27" target="4-v8WGSnHiIDi6gtvXBV-28" edge="1">
          <mxGeometry x="0.3712" y="60" relative="1" as="geometry">
            <mxPoint x="360" y="530.0000000000001" as="sourcePoint" />
            <mxPoint x="370.3333333333335" y="568.3333333333334" as="targetPoint" />
            <Array as="points">
              <mxPoint x="420" y="550" />
              <mxPoint x="420" y="590" />
              <mxPoint x="374" y="590" />
            </Array>
            <mxPoint x="60" y="-60" as="offset" />
          </mxGeometry>
        </mxCell>
        <mxCell id="4-v8WGSnHiIDi6gtvXBV-30" value="Отобразить&lt;br&gt;&amp;nbsp;страницу сделки" style="html=1;verticalAlign=bottom;endArrow=classic;dashed=1;endSize=8;curved=0;rounded=0;exitX=0;exitY=1;exitDx=0;exitDy=-5;exitPerimeter=0;endFill=1;" parent="1" edge="1">
          <mxGeometry relative="1" as="geometry">
            <mxPoint x="340" y="600" as="sourcePoint" />
            <mxPoint x="145" y="600" as="targetPoint" />
          </mxGeometry>
        </mxCell>
        <mxCell id="4-v8WGSnHiIDi6gtvXBV-31" value="Вернуть список&lt;br&gt;сделок" style="html=1;verticalAlign=bottom;endArrow=classic;dashed=1;endSize=8;curved=0;rounded=0;endFill=1;" parent="1" edge="1">
          <mxGeometry relative="1" as="geometry">
            <mxPoint x="550" y="340" as="sourcePoint" />
            <mxPoint x="360" y="340" as="targetPoint" />
          </mxGeometry>
        </mxCell>
        <mxCell id="4-v8WGSnHiIDi6gtvXBV-32" value="" style="endArrow=none;dashed=1;html=1;rounded=0;" parent="1" source="4-v8WGSnHiIDi6gtvXBV-5" target="4-v8WGSnHiIDi6gtvXBV-33" edge="1">
          <mxGeometry width="50" height="50" relative="1" as="geometry">
            <mxPoint x="560" y="430" as="sourcePoint" />
            <mxPoint x="560" y="130" as="targetPoint" />
          </mxGeometry>
        </mxCell>
        <mxCell id="4-v8WGSnHiIDi6gtvXBV-33" value="" style="html=1;points=[[0,0,0,0,5],[0,1,0,0,-5],[1,0,0,0,5],[1,1,0,0,-5]];perimeter=orthogonalPerimeter;outlineConnect=0;targetShapes=umlLifeline;portConstraint=eastwest;newEdgeStyle={&quot;curved&quot;:0,&quot;rounded&quot;:0};" parent="1" vertex="1">
          <mxGeometry x="550" y="280" width="20" height="80" as="geometry" />
        </mxCell>
        <mxCell id="4-v8WGSnHiIDi6gtvXBV-34" value="" style="endArrow=classic;html=1;rounded=0;" parent="1" edge="1">
          <mxGeometry width="50" height="50" relative="1" as="geometry">
            <mxPoint x="360" y="300" as="sourcePoint" />
            <mxPoint x="560" y="300" as="targetPoint" />
          </mxGeometry>
        </mxCell>
        <mxCell id="4-v8WGSnHiIDi6gtvXBV-35" value="Запросить список&amp;nbsp;&lt;br&gt;сделок" style="edgeLabel;html=1;align=center;verticalAlign=middle;resizable=0;points=[];" parent="4-v8WGSnHiIDi6gtvXBV-34" vertex="1" connectable="0">
          <mxGeometry x="0.17" y="3" relative="1" as="geometry">
            <mxPoint x="-17" y="-17" as="offset" />
          </mxGeometry>
        </mxCell>
        <mxCell id="4-v8WGSnHiIDi6gtvXBV-36" value="" style="endArrow=none;html=1;rounded=0;" parent="1" edge="1">
          <mxGeometry width="50" height="50" relative="1" as="geometry">
            <mxPoint y="380" as="sourcePoint" />
            <mxPoint x="780" y="380" as="targetPoint" />
          </mxGeometry>
        </mxCell>
        <mxCell id="4-v8WGSnHiIDi6gtvXBV-37" value="Создать сделку" style="edgeLabel;html=1;align=center;verticalAlign=middle;resizable=0;points=[];" parent="4-v8WGSnHiIDi6gtvXBV-36" vertex="1" connectable="0">
          <mxGeometry x="-0.8606" y="3" relative="1" as="geometry">
            <mxPoint as="offset" />
          </mxGeometry>
        </mxCell>
        <mxCell id="4-v8WGSnHiIDi6gtvXBV-38" value="" style="html=1;points=[[0,0,0,0,5],[0,1,0,0,-5],[1,0,0,0,5],[1,1,0,0,-5]];perimeter=orthogonalPerimeter;outlineConnect=0;targetShapes=umlLifeline;portConstraint=eastwest;newEdgeStyle={&quot;curved&quot;:0,&quot;rounded&quot;:0};" parent="1" vertex="1">
          <mxGeometry x="340" y="270" width="20" height="100" as="geometry" />
        </mxCell>
        <mxCell id="4-v8WGSnHiIDi6gtvXBV-39" value="" style="endArrow=none;dashed=1;html=1;rounded=0;" parent="1" target="4-v8WGSnHiIDi6gtvXBV-40" edge="1">
          <mxGeometry width="50" height="50" relative="1" as="geometry">
            <mxPoint x="350" y="1300" as="sourcePoint" />
            <mxPoint x="350" y="620" as="targetPoint" />
          </mxGeometry>
        </mxCell>
        <mxCell id="4-v8WGSnHiIDi6gtvXBV-40" value="" style="html=1;points=[[0,0,0,0,5],[0,1,0,0,-5],[1,0,0,0,5],[1,1,0,0,-5]];perimeter=orthogonalPerimeter;outlineConnect=0;targetShapes=umlLifeline;portConstraint=eastwest;newEdgeStyle={&quot;curved&quot;:0,&quot;rounded&quot;:0};" parent="1" vertex="1">
          <mxGeometry x="340" y="680" width="20" height="520" as="geometry" />
        </mxCell>
        <mxCell id="4-v8WGSnHiIDi6gtvXBV-41" value="" style="endArrow=none;html=1;rounded=0;" parent="1" edge="1">
          <mxGeometry width="50" height="50" relative="1" as="geometry">
            <mxPoint y="650" as="sourcePoint" />
            <mxPoint x="780" y="650" as="targetPoint" />
          </mxGeometry>
        </mxCell>
        <mxCell id="4-v8WGSnHiIDi6gtvXBV-42" value="Изменить&amp;nbsp; сделку" style="edgeLabel;html=1;align=center;verticalAlign=middle;resizable=0;points=[];" parent="4-v8WGSnHiIDi6gtvXBV-41" vertex="1" connectable="0">
          <mxGeometry x="-0.8457" y="4" relative="1" as="geometry">
            <mxPoint as="offset" />
          </mxGeometry>
        </mxCell>
        <mxCell id="4-v8WGSnHiIDi6gtvXBV-43" value="" style="endArrow=classic;html=1;rounded=0;" parent="1" target="4-v8WGSnHiIDi6gtvXBV-40" edge="1">
          <mxGeometry width="50" height="50" relative="1" as="geometry">
            <mxPoint x="150" y="700" as="sourcePoint" />
            <mxPoint x="300" y="500" as="targetPoint" />
          </mxGeometry>
        </mxCell>
        <mxCell id="4-v8WGSnHiIDi6gtvXBV-44" value="Открыть старницу сделок" style="edgeLabel;html=1;align=center;verticalAlign=middle;resizable=0;points=[];" parent="4-v8WGSnHiIDi6gtvXBV-43" vertex="1" connectable="0">
          <mxGeometry x="0.0069" y="-1" relative="1" as="geometry">
            <mxPoint y="-11" as="offset" />
          </mxGeometry>
        </mxCell>
        <mxCell id="4-v8WGSnHiIDi6gtvXBV-45" value="" style="endArrow=classic;html=1;rounded=0;" parent="1" edge="1">
          <mxGeometry width="50" height="50" relative="1" as="geometry">
            <mxPoint x="360" y="730" as="sourcePoint" />
            <mxPoint x="560" y="730" as="targetPoint" />
          </mxGeometry>
        </mxCell>
        <mxCell id="4-v8WGSnHiIDi6gtvXBV-46" value="Запросить список&amp;nbsp;&lt;br&gt;сделок" style="edgeLabel;html=1;align=center;verticalAlign=middle;resizable=0;points=[];" parent="4-v8WGSnHiIDi6gtvXBV-45" vertex="1" connectable="0">
          <mxGeometry x="0.17" y="3" relative="1" as="geometry">
            <mxPoint x="-17" y="-17" as="offset" />
          </mxGeometry>
        </mxCell>
        <mxCell id="4-v8WGSnHiIDi6gtvXBV-47" value="Вернуть список&lt;br&gt;сделок" style="html=1;verticalAlign=bottom;endArrow=classic;dashed=1;endSize=8;curved=0;rounded=0;endFill=1;" parent="1" edge="1">
          <mxGeometry relative="1" as="geometry">
            <mxPoint x="550" y="770" as="sourcePoint" />
            <mxPoint x="360" y="770" as="targetPoint" />
          </mxGeometry>
        </mxCell>
        <mxCell id="4-v8WGSnHiIDi6gtvXBV-48" value="Отобразить&amp;nbsp;страницу сделок&amp;nbsp;" style="html=1;verticalAlign=bottom;endArrow=classic;dashed=1;endSize=8;curved=0;rounded=0;endFill=1;" parent="1" edge="1">
          <mxGeometry relative="1" as="geometry">
            <mxPoint x="335" y="800" as="sourcePoint" />
            <mxPoint x="145" y="800" as="targetPoint" />
          </mxGeometry>
        </mxCell>
        <mxCell id="4-v8WGSnHiIDi6gtvXBV-49" value="" style="endArrow=classic;html=1;rounded=0;" parent="1" edge="1">
          <mxGeometry width="50" height="50" relative="1" as="geometry">
            <mxPoint x="145" y="860" as="sourcePoint" />
            <mxPoint x="335" y="860" as="targetPoint" />
          </mxGeometry>
        </mxCell>
        <mxCell id="4-v8WGSnHiIDi6gtvXBV-50" value="Открыть старницу сделки" style="edgeLabel;html=1;align=center;verticalAlign=middle;resizable=0;points=[];" parent="4-v8WGSnHiIDi6gtvXBV-49" vertex="1" connectable="0">
          <mxGeometry x="0.0069" y="-1" relative="1" as="geometry">
            <mxPoint y="-11" as="offset" />
          </mxGeometry>
        </mxCell>
        <mxCell id="4-v8WGSnHiIDi6gtvXBV-51" value="" style="endArrow=classic;html=1;rounded=0;" parent="1" edge="1">
          <mxGeometry width="50" height="50" relative="1" as="geometry">
            <mxPoint x="360" y="880" as="sourcePoint" />
            <mxPoint x="560" y="880" as="targetPoint" />
          </mxGeometry>
        </mxCell>
        <mxCell id="4-v8WGSnHiIDi6gtvXBV-52" value="Запросить информацию&amp;nbsp;&lt;br&gt;о сделке" style="edgeLabel;html=1;align=center;verticalAlign=middle;resizable=0;points=[];" parent="4-v8WGSnHiIDi6gtvXBV-51" vertex="1" connectable="0">
          <mxGeometry x="0.17" y="3" relative="1" as="geometry">
            <mxPoint x="-17" y="-17" as="offset" />
          </mxGeometry>
        </mxCell>
        <mxCell id="4-v8WGSnHiIDi6gtvXBV-53" value="Вернуть информацию&lt;br&gt;о сделке" style="html=1;verticalAlign=bottom;endArrow=classic;dashed=1;endSize=8;curved=0;rounded=0;endFill=1;" parent="1" edge="1">
          <mxGeometry relative="1" as="geometry">
            <mxPoint x="550" y="930" as="sourcePoint" />
            <mxPoint x="360" y="930" as="targetPoint" />
            <mxPoint as="offset" />
          </mxGeometry>
        </mxCell>
        <mxCell id="4-v8WGSnHiIDi6gtvXBV-54" value="Отобразить информацию о сделке&amp;nbsp;" style="html=1;verticalAlign=bottom;endArrow=classic;dashed=1;endSize=8;curved=0;rounded=0;endFill=1;" parent="1" edge="1">
          <mxGeometry relative="1" as="geometry">
            <mxPoint x="335" y="950" as="sourcePoint" />
            <mxPoint x="145" y="950" as="targetPoint" />
          </mxGeometry>
        </mxCell>
        <mxCell id="4-v8WGSnHiIDi6gtvXBV-55" value="" style="endArrow=classic;html=1;rounded=0;" parent="1" edge="1">
          <mxGeometry width="50" height="50" relative="1" as="geometry">
            <mxPoint x="150" y="1010" as="sourcePoint" />
            <mxPoint x="340" y="1010" as="targetPoint" />
          </mxGeometry>
        </mxCell>
        <mxCell id="4-v8WGSnHiIDi6gtvXBV-56" value="Изменить данные сделки" style="edgeLabel;html=1;align=center;verticalAlign=middle;resizable=0;points=[];" parent="4-v8WGSnHiIDi6gtvXBV-55" vertex="1" connectable="0">
          <mxGeometry x="0.0069" y="-1" relative="1" as="geometry">
            <mxPoint y="-11" as="offset" />
          </mxGeometry>
        </mxCell>
        <mxCell id="4-v8WGSnHiIDi6gtvXBV-57" value="Запросить подтверждение измений&amp;nbsp;" style="html=1;verticalAlign=bottom;endArrow=classic;dashed=1;endSize=8;curved=0;rounded=0;endFill=1;" parent="1" edge="1">
          <mxGeometry relative="1" as="geometry">
            <mxPoint x="335" y="1050" as="sourcePoint" />
            <mxPoint x="145" y="1050" as="targetPoint" />
          </mxGeometry>
        </mxCell>
        <mxCell id="4-v8WGSnHiIDi6gtvXBV-58" value="" style="endArrow=classic;html=1;rounded=0;" parent="1" edge="1">
          <mxGeometry width="50" height="50" relative="1" as="geometry">
            <mxPoint x="150" y="1090" as="sourcePoint" />
            <mxPoint x="340" y="1090" as="targetPoint" />
          </mxGeometry>
        </mxCell>
        <mxCell id="4-v8WGSnHiIDi6gtvXBV-59" value="Подтвердить изменения" style="edgeLabel;html=1;align=center;verticalAlign=middle;resizable=0;points=[];" parent="4-v8WGSnHiIDi6gtvXBV-58" vertex="1" connectable="0">
          <mxGeometry x="0.0069" y="-1" relative="1" as="geometry">
            <mxPoint y="-11" as="offset" />
          </mxGeometry>
        </mxCell>
        <mxCell id="4-v8WGSnHiIDi6gtvXBV-60" value="" style="endArrow=classic;html=1;rounded=0;" parent="1" edge="1">
          <mxGeometry width="50" height="50" relative="1" as="geometry">
            <mxPoint x="360" y="1110" as="sourcePoint" />
            <mxPoint x="550" y="1110" as="targetPoint" />
          </mxGeometry>
        </mxCell>
        <mxCell id="4-v8WGSnHiIDi6gtvXBV-61" value="Отправить изменения на сервер" style="edgeLabel;html=1;align=center;verticalAlign=middle;resizable=0;points=[];" parent="4-v8WGSnHiIDi6gtvXBV-60" vertex="1" connectable="0">
          <mxGeometry x="0.0069" y="-1" relative="1" as="geometry">
            <mxPoint y="-11" as="offset" />
          </mxGeometry>
        </mxCell>
        <mxCell id="4-v8WGSnHiIDi6gtvXBV-62" value="" style="endArrow=none;dashed=1;html=1;rounded=0;" parent="1" target="4-v8WGSnHiIDi6gtvXBV-63" edge="1">
          <mxGeometry width="50" height="50" relative="1" as="geometry">
            <mxPoint x="570" y="1300" as="sourcePoint" />
            <mxPoint x="570" y="520" as="targetPoint" />
          </mxGeometry>
        </mxCell>
        <mxCell id="4-v8WGSnHiIDi6gtvXBV-63" value="" style="html=1;points=[[0,0,0,0,5],[0,1,0,0,-5],[1,0,0,0,5],[1,1,0,0,-5]];perimeter=orthogonalPerimeter;outlineConnect=0;targetShapes=umlLifeline;portConstraint=eastwest;newEdgeStyle={&quot;curved&quot;:0,&quot;rounded&quot;:0};" parent="1" vertex="1">
          <mxGeometry x="560" y="850" width="20" height="90" as="geometry" />
        </mxCell>
        <mxCell id="4-v8WGSnHiIDi6gtvXBV-64" value="" style="endArrow=none;dashed=1;html=1;rounded=0;" parent="1" target="4-v8WGSnHiIDi6gtvXBV-65" edge="1">
          <mxGeometry width="50" height="50" relative="1" as="geometry">
            <mxPoint x="570" y="1140" as="sourcePoint" />
            <mxPoint x="570" y="940" as="targetPoint" />
          </mxGeometry>
        </mxCell>
        <mxCell id="4-v8WGSnHiIDi6gtvXBV-65" value="" style="html=1;points=[[0,0,0,0,5],[0,1,0,0,-5],[1,0,0,0,5],[1,1,0,0,-5]];perimeter=orthogonalPerimeter;outlineConnect=0;targetShapes=umlLifeline;portConstraint=eastwest;newEdgeStyle={&quot;curved&quot;:0,&quot;rounded&quot;:0};" parent="1" vertex="1">
          <mxGeometry x="560" y="1090" width="20" height="110" as="geometry" />
        </mxCell>
        <mxCell id="4-v8WGSnHiIDi6gtvXBV-66" value="" style="html=1;points=[];perimeter=orthogonalPerimeter;rounded=0;shadow=0;comic=0;labelBackgroundColor=none;strokeWidth=1;fontFamily=Verdana;fontSize=12;align=center;" parent="1" vertex="1">
          <mxGeometry x="570" y="1130" width="20" height="39" as="geometry" />
        </mxCell>
        <mxCell id="4-v8WGSnHiIDi6gtvXBV-67" value="&lt;font style=&quot;font-size: 11px;&quot;&gt;Проверить&lt;br&gt;переданные данные&lt;/font&gt;" style="html=1;verticalAlign=bottom;endArrow=block;labelBackgroundColor=none;fontFamily=Verdana;fontSize=12;elbow=vertical;edgeStyle=orthogonalEdgeStyle;curved=1;entryX=1;entryY=0.286;entryPerimeter=0;" parent="1" edge="1">
          <mxGeometry x="-0.189" y="20" relative="1" as="geometry">
            <mxPoint x="580" y="460.0000000000001" as="sourcePoint" />
            <mxPoint x="590.3333333333335" y="498.33333333333337" as="targetPoint" />
            <Array as="points">
              <mxPoint x="640" y="460" />
              <mxPoint x="640" y="498" />
            </Array>
            <mxPoint as="offset" />
          </mxGeometry>
        </mxCell>
        <mxCell id="4-v8WGSnHiIDi6gtvXBV-68" value="Подтвердить изменения" style="html=1;verticalAlign=bottom;endArrow=classic;dashed=1;endSize=8;curved=0;rounded=0;endFill=1;" parent="1" edge="1">
          <mxGeometry relative="1" as="geometry">
            <mxPoint x="550" y="1169" as="sourcePoint" />
            <mxPoint x="360" y="1169" as="targetPoint" />
            <mxPoint as="offset" />
          </mxGeometry>
        </mxCell>
        <mxCell id="4-v8WGSnHiIDi6gtvXBV-69" value="Уведомление об успешном &lt;br&gt;измении сделки" style="html=1;verticalAlign=bottom;endArrow=classic;dashed=1;endSize=8;curved=0;rounded=0;endFill=1;" parent="1" edge="1">
          <mxGeometry relative="1" as="geometry">
            <mxPoint x="330" y="1190" as="sourcePoint" />
            <mxPoint x="140" y="1190" as="targetPoint" />
            <mxPoint as="offset" />
          </mxGeometry>
        </mxCell>
      </root>
    </mxGraphModel>
  </diagram>
</mxfile>
